# xmcd CD database file generated by OrangeCD 6.4
#
# Track frame offsets:
#	150
#	17666
#	35335
#	49979
#	65905
#	82660
#	99047
#	113851
#	131321
#	147750
#	160887
#	179364
#	198928
#
# Disc length: 2874 seconds
#
# Revision: 0
# Processed by: cddbd v1.5.2PL0 Copyright (c) Steve Scherf et al.
# Submitted via: OrangeCD 6.4
#
DISCID=a20b380d
DTITLE=The Hard Road Trio - Monticello
DYEAR=2012
DGENRE=
TTITLE0=Beacon
TTITLE1=Best of Intentions
TTITLE2=Maybe I Should Tell You
TTITLE3=Crack In The Sky
TTITLE4=Family Secrets
TTITLE5=Roscoe's Flying Dream
TTITLE6=You Got Me Thinkin'
TTITLE7=Break Free
TTITLE8=2:00 Moon
TTITLE9=Over The Edge
TTITLE10=My Walden
TTITLE11=Tommy Chief
TTITLE12=Honeymoon From ...
EXTD=
EXTT0=
EXTT1=
EXTT2=
EXTT3=
EXTT4=
EXTT5=
EXTT6=
EXTT7=
EXTT8=
EXTT9=
EXTT10=
EXTT11=
EXTT12=
PLAYORDER=
